<?xml version="1.0" encoding="iso-8859-1"?>
<!-- Generator: Adobe Illustrator 19.0.0, SVG Export Plug-In . SVG Version: 6.00 Build 0)  -->
<svg version="1.1" id="Layer_1" xmlns="http://www.w3.org/2000/svg" xmlns:xlink="http://www.w3.org/1999/xlink" x="0px" y="0px"
	 viewBox="0 0 490 490" style="enable-background:new 0 0 490 490;" xml:space="preserve">
<g>
	<g>
		<g>
			<path d="M75,250c-5.523,0-10,4.478-10,10v150c0,5.522,4.477,10,10,10h190c5.522,0,10-4.478,10-10V260c0-5.522-4.478-10-10-10H75z
				 M160,400H85v-55h75V400z M160,325H85v-55h75V325z M255,400h-75v-55h75V400z M255,325h-75v-55h75V325z"/>
			<rect x="310" y="205" width="55" height="20"/>
			<rect x="380" y="205" width="20" height="20"/>
			<path d="M480,185c5.522,0,10-4.478,10-10V25c0-11.028-8.972-20-20-20H20C8.972,5,0,13.972,0,25v150c0,5.522,4.477,10,10,10h20
				v280H0v20h490v-20h-30V185H480z M255,25h100v140H255V25z M135,25h100v140H135V25z M20,165V25h95v140H40H20z M405,460H305V270h40
				v165h20V270h40V460z M440,465h-15V260c0-5.522-4.478-10-10-10H295c-5.522,0-10,4.478-10,10v205H50V225h220v-20H50v-20h390V465z
				 M375,165V25h95v140H375z"/>
		</g>
	</g>
</g>
<g>
</g>
<g>
</g>
<g>
</g>
<g>
</g>
<g>
</g>
<g>
</g>
<g>
</g>
<g>
</g>
<g>
</g>
<g>
</g>
<g>
</g>
<g>
</g>
<g>
</g>
<g>
</g>
<g>
</g>
</svg>
